<?xml version="1.0" encoding="UTF-8" standalone="no"?>
<!-- Created with Inkscape (http://www.inkscape.org/) -->

<svg
   xmlns:dc="http://purl.org/dc/elements/1.1/"
   xmlns:cc="http://creativecommons.org/ns#"
   xmlns:rdf="http://www.w3.org/1999/02/22-rdf-syntax-ns#"
   xmlns:svg="http://www.w3.org/2000/svg"
   xmlns="http://www.w3.org/2000/svg"
   xmlns:sodipodi="http://sodipodi.sourceforge.net/DTD/sodipodi-0.dtd"
   xmlns:inkscape="http://www.inkscape.org/namespaces/inkscape"
   id="svg8"
   version="1.1"
   viewBox="0 0 210 297"
   height="297mm"
   width="210mm"
   inkscape:version="0.92.2 (5c3e80d, 2017-08-06)"
   sodipodi:docname="colors.svg">
  <sodipodi:namedview
     inkscape:window-maximized="1"
     inkscape:window-y="-8"
     inkscape:window-x="-8"
     inkscape:window-height="716"
     inkscape:window-width="1366"
     showgrid="false"
     inkscape:current-layer="g6380"
     inkscape:document-units="mm"
     inkscape:cy="453.76584"
     inkscape:cx="-148.41305"
     inkscape:zoom="0.38"
     inkscape:pageshadow="2"
     inkscape:pageopacity="0.0"
     borderopacity="1.0"
     bordercolor="#666666"
     pagecolor="#ffffff"
     id="base" />
  <defs
     id="defs2" />
  <metadata
     id="metadata5">
    <rdf:RDF>
      <cc:Work
         rdf:about="">
        <dc:format>image/svg+xml</dc:format>
        <dc:type
           rdf:resource="http://purl.org/dc/dcmitype/StillImage" />
        <dc:title></dc:title>
      </cc:Work>
    </rdf:RDF>
  </metadata>
  <g
     inkscape:label="Calque 1"
     inkscape:groupmode="layer"
     id="layer1">
    <g
       id="g3835"
       transform="translate(20.41071,25.702379)">
      <g
         id="g4675"
         transform="matrix(1.0034948,0,0,0.87482354,155.16719,-4.6069489)">
        <path
           id="path4647"
           style="opacity:1;fill:#241f1c;fill-opacity:1;stroke:none;stroke-width:0.15487507"
           d="m -1.0804636,-1.4625555 c 0,0 30.6359606,0 30.6359606,0 0,0 0,28.5471415 0,28.5471415 0,0 -30.6359606,0 -30.6359606,0 0,0 0,-28.5471415 0,-28.5471415"
           inkscape:connector-curvature="0" />
        <path
           id="path4649"
           style="opacity:1;fill:#30201e;fill-opacity:1;stroke:none;stroke-width:0.15487507"
           d="m -1.0804636,18.162931 c 0,0 30.6359606,0 30.6359606,0 0,0 0,28.547143 0,28.547143 0,0 -30.6359606,0 -30.6359606,0 0,0 0,-28.547143 0,-28.547143"
           inkscape:connector-curvature="0" />
        <path
           id="path4651"
           style="opacity:1;fill:#3d2220;fill-opacity:1;stroke:none;stroke-width:0.15487507"
           d="m -1.0804636,37.78842 c 0,0 30.6359606,0 30.6359606,0 0,0 0,28.547143 0,28.547143 0,0 -30.6359606,0 -30.6359606,0 0,0 0,-28.547143 0,-28.547143"
           inkscape:connector-curvature="0" />
        <path
           id="path4653"
           style="opacity:1;fill:#492422;fill-opacity:1;stroke:none;stroke-width:0.15487507"
           d="m -1.0804636,57.413906 c 0,0 30.6359606,0 30.6359606,0 0,0 0,28.547145 0,28.547145 0,0 -30.6359606,0 -30.6359606,0 0,0 0,-28.547145 0,-28.547145"
           inkscape:connector-curvature="0" />
        <path
           id="path4655"
           style="opacity:1;fill:#562624;fill-opacity:1;stroke:none;stroke-width:0.15487507"
           d="m -1.0804636,77.039393 c 0,0 30.6359606,0 30.6359606,0 0,0 0,28.547107 0,28.547107 0,0 -30.6359606,0 -30.6359606,0 0,0 0,-28.547107 0,-28.547107"
           inkscape:connector-curvature="0" />
        <path
           id="path4657"
           style="opacity:1;fill:#632826;fill-opacity:1;stroke:none;stroke-width:0.15487507"
           d="m -1.0804636,96.66488 c 0,0 30.6359606,0 30.6359606,0 0,0 0,28.54704 0,28.54704 0,0 -30.6359606,0 -30.6359606,0 0,0 0,-28.54704 0,-28.54704"
           inkscape:connector-curvature="0" />
        <path
           id="path4659"
           style="opacity:1;fill:#6f2a28;fill-opacity:1;stroke:none;stroke-width:0.15487507"
           d="m -1.0804636,116.29026 c 0,0 30.6359606,0 30.6359606,0 0,0 0,28.54715 0,28.54715 0,0 -30.6359606,0 -30.6359606,0 0,0 0,-28.54715 0,-28.54715"
           inkscape:connector-curvature="0" />
        <path
           id="path4661"
           style="opacity:1;fill:#7c2b2a;fill-opacity:1;stroke:none;stroke-width:0.15487507"
           d="m -1.0804637,135.91575 c 0,0 30.6359607,0 30.6359607,0 0,0 0,28.54715 0,28.54715 0,0 -30.6359607,0 -30.6359607,0 0,0 0,-28.54715 0,-28.54715"
           inkscape:connector-curvature="0" />
        <path
           id="path4663"
           style="opacity:1;fill:#882d2c;fill-opacity:1;stroke:none;stroke-width:0.15487507"
           d="m -1.0804637,155.54124 c 0,0 30.6359607,0 30.6359607,0 0,0 0,28.54715 0,28.54715 0,0 -30.6359607,0 -30.6359607,0 0,0 0,-28.54715 0,-28.54715"
           inkscape:connector-curvature="0" />
        <path
           id="path4665"
           style="opacity:1;fill:#952f2e;fill-opacity:1;stroke:none;stroke-width:0.15487507"
           d="m -1.0804637,175.16672 c 0,0 30.6359607,0 30.6359607,0 0,0 0,28.54716 0,28.54716 0,0 -30.6359607,0 -30.6359607,0 0,0 0,-28.54716 0,-28.54716"
           inkscape:connector-curvature="0" />
        <path
           id="path4667"
           style="opacity:1;fill:#a23130;fill-opacity:1;stroke:none;stroke-width:0.15487507"
           d="m -1.0804637,194.79221 c 0,0 30.6359607,0 30.6359607,0 0,0 0,28.54716 0,28.54716 0,0 -30.6359607,0 -30.6359607,0 0,0 0,-28.54716 0,-28.54716"
           inkscape:connector-curvature="0" />
        <path
           id="path4669"
           style="opacity:1;fill:#ae3332;fill-opacity:1;stroke:none;stroke-width:0.15487507"
           d="m -1.0804637,214.4177 c 0,0 30.6359607,0 30.6359607,0 0,0 0,28.54715 0,28.54715 0,0 -30.6359607,0 -30.6359607,0 0,0 0,-28.54715 0,-28.54715"
           inkscape:connector-curvature="0" />
        <path
           id="path4671"
           style="opacity:1;fill:#bb3534;fill-opacity:1;stroke:none;stroke-width:0.15487507"
           d="m -1.0804637,234.04318 c 0,0 30.6359607,0 30.6359607,0 0,0 0,28.54716 0,28.54716 0,0 -30.6359607,0 -30.6359607,0 0,0 0,-28.54716 0,-28.54716"
           inkscape:connector-curvature="0" />
        <path
           id="path4673"
           style="opacity:1;fill:#c83737;fill-opacity:1;stroke:none;stroke-width:0.15487507"
           d="m -1.0804637,253.66867 c 0,0 30.6359607,0 30.6359607,0 0,0 0,28.54716 0,28.54716 0,0 -30.6359607,0 -30.6359607,0 0,0 0,-28.54716 0,-28.54716"
           inkscape:connector-curvature="0" />
      </g>
      <g
         transform="matrix(1.0034948,0,0,0.87482354,116.34544,9.1513407)"
         id="g5660">
        <path
           inkscape:connector-curvature="0"
           d="m -1.6077874,-17.189538 c 0,0 30.6359604,0 30.6359604,0 0,0 0,28.54714 0,28.54714 0,0 -30.6359604,0 -30.6359604,0 0,0 0,-28.54714 0,-28.54714"
           style="opacity:1;fill:#000080;fill-opacity:1;stroke:none;stroke-width:0.15487507"
           id="path5632" />
        <path
           inkscape:connector-curvature="0"
           d="m -1.6077874,2.4359488 c 0,0 30.6359604,0 30.6359604,0 0,0 0,28.5471412 0,28.5471412 0,0 -30.6359604,0 -30.6359604,0 0,0 0,-28.5471412 0,-28.5471412"
           style="opacity:1;fill:#130776;fill-opacity:1;stroke:none;stroke-width:0.15487507"
           id="path5634" />
        <path
           inkscape:connector-curvature="0"
           d="m -1.6077874,22.061436 c 0,0 30.6359604,0 30.6359604,0 0,0 0,28.547143 0,28.547143 0,0 -30.6359604,0 -30.6359604,0 0,0 0,-28.547143 0,-28.547143"
           style="opacity:1;fill:#270f6c;fill-opacity:1;stroke:none;stroke-width:0.15487507"
           id="path5636" />
        <path
           inkscape:connector-curvature="0"
           d="m -1.6077874,41.686922 c 0,0 30.6359604,0 30.6359604,0 0,0 0,28.547145 0,28.547145 0,0 -30.6359604,0 -30.6359604,0 0,0 0,-28.547145 0,-28.547145"
           style="opacity:1;fill:#3a1762;fill-opacity:1;stroke:none;stroke-width:0.15487507"
           id="path5638" />
        <path
           inkscape:connector-curvature="0"
           d="m -1.6077874,61.312409 c 0,0 30.6359604,0 30.6359604,0 0,0 0,28.547146 0,28.547146 0,0 -30.6359604,0 -30.6359604,0 0,0 0,-28.547146 0,-28.547146"
           style="opacity:1;fill:#4e1f58;fill-opacity:1;stroke:none;stroke-width:0.15487507"
           id="path5640" />
        <path
           inkscape:connector-curvature="0"
           d="m -1.6077874,80.937896 c 0,0 30.6359604,0 30.6359604,0 0,0 0,28.547144 0,28.547144 0,0 -30.6359604,0 -30.6359604,0 0,0 0,-28.547144 0,-28.547144"
           style="opacity:1;fill:#62274e;fill-opacity:1;stroke:none;stroke-width:0.15487507"
           id="path5642" />
        <path
           inkscape:connector-curvature="0"
           d="m -1.6077874,100.56338 c 0,0 30.6359604,0 30.6359604,0 0,0 0,28.54715 0,28.54715 0,0 -30.6359604,0 -30.6359604,0 0,0 0,-28.54715 0,-28.54715"
           style="opacity:1;fill:#752f44;fill-opacity:1;stroke:none;stroke-width:0.15487507"
           id="path5644" />
        <path
           inkscape:connector-curvature="0"
           d="m -1.6077875,120.18887 c 0,0 30.6359605,0 30.6359605,0 0,0 0,28.54715 0,28.54715 0,0 -30.6359605,0 -30.6359605,0 0,0 0,-28.54715 0,-28.54715"
           style="opacity:1;fill:#89363b;fill-opacity:1;stroke:none;stroke-width:0.15487507"
           id="path5646" />
        <path
           inkscape:connector-curvature="0"
           d="m -1.6077875,139.81436 c 0,0 30.6359605,0 30.6359605,0 0,0 0,28.54715 0,28.54715 0,0 -30.6359605,0 -30.6359605,0 0,0 0,-28.54715 0,-28.54715"
           style="opacity:1;fill:#9c3e31;fill-opacity:1;stroke:none;stroke-width:0.15487507"
           id="path5648" />
        <path
           inkscape:connector-curvature="0"
           d="m -1.6077875,159.43984 c 0,0 30.6359605,0 30.6359605,0 0,0 0,28.54716 0,28.54716 0,0 -30.6359605,0 -30.6359605,0 0,0 0,-28.54716 0,-28.54716"
           style="opacity:1;fill:#b04627;fill-opacity:1;stroke:none;stroke-width:0.15487507"
           id="path5650" />
        <path
           inkscape:connector-curvature="0"
           d="m -1.6077875,179.06533 c 0,0 30.6359605,0 30.6359605,0 0,0 0,28.54716 0,28.54716 0,0 -30.6359605,0 -30.6359605,0 0,0 0,-28.54716 0,-28.54716"
           style="opacity:1;fill:#c44e1d;fill-opacity:1;stroke:none;stroke-width:0.15487507"
           id="path5652" />
        <path
           inkscape:connector-curvature="0"
           d="m -1.6077875,198.69082 c 0,0 30.6359605,0 30.6359605,0 0,0 0,28.54715 0,28.54715 0,0 -30.6359605,0 -30.6359605,0 0,0 0,-28.54715 0,-28.54715"
           style="opacity:1;fill:#d75613;fill-opacity:1;stroke:none;stroke-width:0.15487507"
           id="path5654" />
        <path
           inkscape:connector-curvature="0"
           d="m -1.6077875,218.3163 c 0,0 30.6359605,0 30.6359605,0 0,0 0,28.54716 0,28.54716 0,0 -30.6359605,0 -30.6359605,0 0,0 0,-28.54716 0,-28.54716"
           style="opacity:1;fill:#eb5e09;fill-opacity:1;stroke:none;stroke-width:0.15487507"
           id="path5656" />
        <path
           inkscape:connector-curvature="0"
           d="m -1.6077875,237.94179 c 0,0 30.6359605,0 30.6359605,0 0,0 0,28.54716 0,28.54716 0,0 -30.6359605,0 -30.6359605,0 0,0 0,-28.54716 0,-28.54716"
           style="opacity:1;fill:#ff6600;fill-opacity:1;stroke:none;stroke-width:0.15487507"
           id="path5658" />
      </g>
      <g
         id="g5870"
         transform="matrix(1.0034948,0,0,0.87482354,74.926073,9.0497973)">
        <path
           id="path5842"
           style="opacity:1;fill:#660080;fill-opacity:1;stroke:none;stroke-width:0.15487507"
           d="m -1.607783,237.86757 c 0,0 30.635956,0 30.635956,0 0,0 0,28.54716 0,28.54716 0,0 -30.635956,0 -30.635956,0 0,0 0,-28.54716 0,-28.54716"
           inkscape:connector-curvature="0" />
        <path
           id="path5844"
           style="opacity:1;fill:#5f0688;fill-opacity:1;stroke:none;stroke-width:0.15487507"
           d="m -1.6077875,218.3163 c 0,0 30.6359605,0 30.6359605,0 0,0 0,28.54716 0,28.54716 0,0 -30.6359605,0 -30.6359605,0 0,0 0,-28.54716 0,-28.54716"
           inkscape:connector-curvature="0" />
        <path
           id="path5846"
           style="opacity:1;fill:#580d91;fill-opacity:1;stroke:none;stroke-width:0.15487507"
           d="m -1.6077875,198.69082 c 0,0 30.6359605,0 30.6359605,0 0,0 0,28.54715 0,28.54715 0,0 -30.6359605,0 -30.6359605,0 0,0 0,-28.54715 0,-28.54715"
           inkscape:connector-curvature="0" />
        <path
           id="path5848"
           style="opacity:1;fill:#511499;fill-opacity:1;stroke:none;stroke-width:0.15487507"
           d="m -1.6077875,179.06533 c 0,0 30.6359605,0 30.6359605,0 0,0 0,28.54716 0,28.54716 0,0 -30.6359605,0 -30.6359605,0 0,0 0,-28.54716 0,-28.54716"
           inkscape:connector-curvature="0" />
        <path
           id="path5850"
           style="opacity:1;fill:#4a1ba2;fill-opacity:1;stroke:none;stroke-width:0.15487507"
           d="m -1.6077875,159.43984 c 0,0 30.6359605,0 30.6359605,0 0,0 0,28.54716 0,28.54716 0,0 -30.6359605,0 -30.6359605,0 0,0 0,-28.54716 0,-28.54716"
           inkscape:connector-curvature="0" />
        <path
           id="path5852"
           style="opacity:1;fill:#4322ab;fill-opacity:1;stroke:none;stroke-width:0.15487507"
           d="m -1.6077875,139.81436 c 0,0 30.6359605,0 30.6359605,0 0,0 0,28.54715 0,28.54715 0,0 -30.6359605,0 -30.6359605,0 0,0 0,-28.54715 0,-28.54715"
           inkscape:connector-curvature="0" />
        <path
           id="path5854"
           style="opacity:1;fill:#3c29b3;fill-opacity:1;stroke:none;stroke-width:0.15487507"
           d="m -1.6077875,120.18887 c 0,0 30.6359605,0 30.6359605,0 0,0 0,28.54715 0,28.54715 0,0 -30.6359605,0 -30.6359605,0 0,0 0,-28.54715 0,-28.54715"
           inkscape:connector-curvature="0" />
        <path
           id="path5856"
           style="opacity:1;fill:#3430bc;fill-opacity:1;stroke:none;stroke-width:0.15487507"
           d="m -1.6077874,100.56338 c 0,0 30.6359604,0 30.6359604,0 0,0 0,28.54715 0,28.54715 0,0 -30.6359604,0 -30.6359604,0 0,0 0,-28.54715 0,-28.54715"
           inkscape:connector-curvature="0" />
        <path
           id="path5858"
           style="opacity:1;fill:#2e37c4;fill-opacity:1;stroke:none;stroke-width:0.15487507"
           d="m -1.6077874,80.937896 c 0,0 30.6359604,0 30.6359604,0 0,0 0,28.547144 0,28.547144 0,0 -30.6359604,0 -30.6359604,0 0,0 0,-28.547144 0,-28.547144"
           inkscape:connector-curvature="0" />
        <path
           id="path5860"
           style="opacity:1;fill:#273ecd;fill-opacity:1;stroke:none;stroke-width:0.15487507"
           d="m -1.6077874,61.312409 c 0,0 30.6359604,0 30.6359604,0 0,0 0,28.547146 0,28.547146 0,0 -30.6359604,0 -30.6359604,0 0,0 0,-28.547146 0,-28.547146"
           inkscape:connector-curvature="0" />
        <path
           id="path5862"
           style="opacity:1;fill:#2045d6;fill-opacity:1;stroke:none;stroke-width:0.15487507"
           d="m -1.6077874,41.686922 c 0,0 30.6359604,0 30.6359604,0 0,0 0,28.547145 0,28.547145 0,0 -30.6359604,0 -30.6359604,0 0,0 0,-28.547145 0,-28.547145"
           inkscape:connector-curvature="0" />
        <path
           id="path5864"
           style="opacity:1;fill:#194cde;fill-opacity:1;stroke:none;stroke-width:0.15487507"
           d="m -1.6077874,22.061436 c 0,0 30.6359604,0 30.6359604,0 0,0 0,28.547143 0,28.547143 0,0 -30.6359604,0 -30.6359604,0 0,0 0,-28.547143 0,-28.547143"
           inkscape:connector-curvature="0" />
        <path
           id="path5866"
           style="opacity:1;fill:#1253e7;fill-opacity:1;stroke:none;stroke-width:0.15487507"
           d="m -1.6077874,2.4359488 c 0,0 30.6359604,0 30.6359604,0 0,0 0,28.5471412 0,28.5471412 0,0 -30.6359604,0 -30.6359604,0 0,0 0,-28.5471412 0,-28.5471412"
           inkscape:connector-curvature="0" />
        <path
           id="path5868"
           style="opacity:1;fill:#0b5af0;fill-opacity:1;stroke:none;stroke-width:0.15487507"
           d="m -1.6634548,-16.883172 c 0,0 30.6359528,0 30.6359528,0 0,0 0,28.547135 0,28.547135 0,0 -30.6359528,0 -30.6359528,0 0,0 0,-28.547135 0,-28.547135"
           inkscape:connector-curvature="0" />
      </g>
      <g
         transform="matrix(1.0034948,0,0,0.87482354,-1.4004966,12.014185)"
         id="g6110">
        <path
           inkscape:connector-curvature="0"
           d="m 29.682699,234.26546 c 0,0 30.63597,0 30.63597,0 0,0 0,28.54716 0,28.54716 0,0 -30.63597,0 -30.63597,0 0,0 0,-28.54716 0,-28.54716"
           style="opacity:1;fill:#008033;fill-opacity:1;stroke:none;stroke-width:0.15487507"
           id="path6082" />
        <path
           inkscape:connector-curvature="0"
           d="m 29.682698,214.7021 c 0,0 30.635972,0 30.635972,0 0,0 0,28.54716 0,28.54716 0,0 -30.635972,0 -30.635972,0 0,0 0,-28.54716 0,-28.54716"
           style="opacity:1;fill:#13852f;fill-opacity:1;stroke:none;stroke-width:0.15487507"
           id="path6084" />
        <path
           inkscape:connector-curvature="0"
           d="m 29.682697,195.13875 c 0,0 30.635974,0 30.635974,0 0,0 0,28.54715 0,28.54715 0,0 -30.635974,0 -30.635974,0 0,0 0,-28.54715 0,-28.54715"
           style="opacity:1;fill:#278b2b;fill-opacity:1;stroke:none;stroke-width:0.15487507"
           id="path6086" />
        <path
           inkscape:connector-curvature="0"
           d="m 29.682697,175.57539 c 0,0 30.635974,0 30.635974,0 0,0 0,28.54716 0,28.54716 0,0 -30.635974,0 -30.635974,0 0,0 0,-28.54716 0,-28.54716"
           style="opacity:1;fill:#3a9127;fill-opacity:1;stroke:none;stroke-width:0.15487507"
           id="path6088" />
        <path
           inkscape:connector-curvature="0"
           d="m 29.682696,156.01203 c 0,0 30.635976,0 30.635976,0 0,0 0,28.54716 0,28.54716 0,0 -30.635976,0 -30.635976,0 0,0 0,-28.54716 0,-28.54716"
           style="opacity:1;fill:#4e9723;fill-opacity:1;stroke:none;stroke-width:0.15487507"
           id="path6090" />
        <path
           inkscape:connector-curvature="0"
           d="m 29.682695,136.44868 c 0,0 30.635978,0 30.635978,0 0,0 0,28.54715 0,28.54715 0,0 -30.635978,0 -30.635978,0 0,0 0,-28.54715 0,-28.54715"
           style="opacity:1;fill:#629d1f;fill-opacity:1;stroke:none;stroke-width:0.15487507"
           id="path6092" />
        <path
           inkscape:connector-curvature="0"
           d="m 29.682694,116.88532 c 0,0 30.63598,0 30.63598,0 0,0 0,28.54715 0,28.54715 0,0 -30.63598,0 -30.63598,0 0,0 0,-28.54715 0,-28.54715"
           style="opacity:1;fill:#75a31b;fill-opacity:1;stroke:none;stroke-width:0.15487507"
           id="path6094" />
        <path
           inkscape:connector-curvature="0"
           d="m 29.682694,97.321966 c 0,0 30.63598,0 30.63598,0 0,0 0,28.547154 0,28.547154 0,0 -30.63598,0 -30.63598,0 0,0 0,-28.547154 0,-28.547154"
           style="opacity:1;fill:#89a817;fill-opacity:1;stroke:none;stroke-width:0.15487507"
           id="path6096" />
        <path
           inkscape:connector-curvature="0"
           d="m 29.682693,77.75861 c 0,0 30.635982,0 30.635982,0 0,0 0,28.54715 0,28.54715 0,0 -30.635982,0 -30.635982,0 0,0 0,-28.54715 0,-28.54715"
           style="opacity:1;fill:#9cae13;fill-opacity:1;stroke:none;stroke-width:0.15487507"
           id="path6098" />
        <path
           inkscape:connector-curvature="0"
           d="m 29.682692,58.195253 c 0,0 30.635984,0 30.635984,0 0,0 0,28.547146 0,28.547146 0,0 -30.635984,0 -30.635984,0 0,0 0,-28.547146 0,-28.547146"
           style="opacity:1;fill:#b0b40f;fill-opacity:1;stroke:none;stroke-width:0.15487507"
           id="path6100" />
        <path
           inkscape:connector-curvature="0"
           d="m 29.682691,38.631897 c 0,0 30.635986,0 30.635986,0 0,0 0,28.547144 0,28.547144 0,0 -30.635986,0 -30.635986,0 0,0 0,-28.547144 0,-28.547144"
           style="opacity:1;fill:#c4ba0b;fill-opacity:1;stroke:none;stroke-width:0.15487507"
           id="path6102" />
        <path
           inkscape:connector-curvature="0"
           d="m 29.682691,19.068541 c 0,0 30.635986,0 30.635986,0 0,0 0,28.547143 0,28.547143 0,0 -30.635986,0 -30.635986,0 0,0 0,-28.547143 0,-28.547143"
           style="opacity:1;fill:#d7c007;fill-opacity:1;stroke:none;stroke-width:0.15487507"
           id="path6104" />
        <path
           inkscape:connector-curvature="0"
           d="m 29.68269,-0.49481569 c 0,0 30.635988,0 30.635988,0 0,0 0,28.54714169 0,28.54714169 0,0 -30.635988,0 -30.635988,0 0,0 0,-28.54714169 0,-28.54714169"
           style="opacity:1;fill:#ebc603;fill-opacity:1;stroke:none;stroke-width:0.15487507"
           id="path6106" />
        <path
           inkscape:connector-curvature="0"
           d="m 29.682689,-20.058172 c 0,0 30.63599,0 30.63599,0 0,0 0,28.5471399 0,28.5471399 0,0 -30.63599,0 -30.63599,0 0,0 0,-28.5471399 0,-28.5471399"
           style="opacity:1;fill:#ffcc00;fill-opacity:1;stroke:none;stroke-width:0.15487507"
           id="path6108" />
      </g>
      <g
         id="g6380"
         transform="matrix(1.0034948,0,0,0.87482354,0.83448153,10.540131)">
        <path
           id="path6352"
           style="opacity:1;fill:#0000ff;fill-opacity:1;stroke:none;stroke-width:0.15487507"
           d="m -15.630669,235.95043 c 0,0 30.635966,0 30.635966,0 0,0 0,28.54716 0,28.54716 0,0 -30.635966,0 -30.635966,0 0,0 0,-28.54716 0,-28.54716"
           inkscape:connector-curvature="0" />
        <path
           id="path6354"
           style="opacity:1;fill:#1300ff;fill-opacity:1;stroke:none;stroke-width:0.15487507"
           d="m -15.63067,216.38707 c 0,0 30.635968,0 30.635968,0 0,0 0,28.54716 0,28.54716 0,0 -30.635968,0 -30.635968,0 0,0 0,-28.54716 0,-28.54716"
           inkscape:connector-curvature="0" />
        <path
           id="path6356"
           style="opacity:1;fill:#2700ff;fill-opacity:1;stroke:none;stroke-width:0.15487507"
           d="m -15.630671,196.82372 c 0,0 30.63597,0 30.63597,0 0,0 0,28.54716 0,28.54716 0,0 -30.63597,0 -30.63597,0 0,0 0,-28.54716 0,-28.54716"
           inkscape:connector-curvature="0" />
        <path
           id="path6358"
           style="opacity:1;fill:#3a00ff;fill-opacity:1;stroke:none;stroke-width:0.15487507"
           d="m -15.630671,177.26036 c 0,0 30.63597,0 30.63597,0 0,0 0,28.54716 0,28.54716 0,0 -30.63597,0 -30.63597,0 0,0 0,-28.54716 0,-28.54716"
           inkscape:connector-curvature="0" />
        <path
           id="path6360"
           style="opacity:1;fill:#4e00ff;fill-opacity:1;stroke:none;stroke-width:0.15487507"
           d="m -15.630672,157.69701 c 0,0 30.635972,0 30.635972,0 0,0 0,28.54715 0,28.54715 0,0 -30.635972,0 -30.635972,0 0,0 0,-28.54715 0,-28.54715"
           inkscape:connector-curvature="0" />
        <path
           id="path6362"
           style="opacity:1;fill:#6200ff;fill-opacity:1;stroke:none;stroke-width:0.15487507"
           d="m -15.630673,138.13365 c 0,0 30.635974,0 30.635974,0 0,0 0,28.54715 0,28.54715 0,0 -30.635974,0 -30.635974,0 0,0 0,-28.54715 0,-28.54715"
           inkscape:connector-curvature="0" />
        <path
           id="path6364"
           style="opacity:1;fill:#7500ff;fill-opacity:1;stroke:none;stroke-width:0.15487507"
           d="m -15.630674,118.5703 c 0,0 30.635976,0 30.635976,0 0,0 0,28.54715 0,28.54715 0,0 -30.635976,0 -30.635976,0 0,0 0,-28.54715 0,-28.54715"
           inkscape:connector-curvature="0" />
        <path
           id="path6366"
           style="opacity:1;fill:#8900ff;fill-opacity:1;stroke:none;stroke-width:0.15487507"
           d="m -15.630674,99.00694 c 0,0 30.635976,0 30.635976,0 0,0 0,28.54715 0,28.54715 0,0 -30.635976,0 -30.635976,0 0,0 0,-28.54715 0,-28.54715"
           inkscape:connector-curvature="0" />
        <path
           id="path6368"
           style="opacity:1;fill:#9c00ff;fill-opacity:1;stroke:none;stroke-width:0.15487507"
           d="m -15.630675,79.443584 c 0,0 30.635978,0 30.635978,0 0,0 0,28.547146 0,28.547146 0,0 -30.635978,0 -30.635978,0 0,0 0,-28.547146 0,-28.547146"
           inkscape:connector-curvature="0" />
        <path
           id="path6370"
           style="opacity:1;fill:#b000ff;fill-opacity:1;stroke:none;stroke-width:0.15487507"
           d="m -15.630676,59.880228 c 0,0 30.63598,0 30.63598,0 0,0 0,28.547145 0,28.547145 0,0 -30.63598,0 -30.63598,0 0,0 0,-28.547145 0,-28.547145"
           inkscape:connector-curvature="0" />
        <path
           id="path6372"
           style="opacity:1;fill:#c400ff;fill-opacity:1;stroke:none;stroke-width:0.15487507"
           d="m -15.630677,40.316872 c 0,0 30.635982,0 30.635982,0 0,0 0,28.547143 0,28.547143 0,0 -30.635982,0 -30.635982,0 0,0 0,-28.547143 0,-28.547143"
           inkscape:connector-curvature="0" />
        <path
           id="path6374"
           style="opacity:1;fill:#d700ff;fill-opacity:1;stroke:none;stroke-width:0.15487507"
           d="m -15.630677,20.753517 c 0,0 30.635982,0 30.635982,0 0,0 0,28.547141 0,28.547141 0,0 -30.635982,0 -30.635982,0 0,0 0,-28.547141 0,-28.547141"
           inkscape:connector-curvature="0" />
        <path
           id="path6376"
           style="opacity:1;fill:#eb00ff;fill-opacity:1;stroke:none;stroke-width:0.15487507"
           d="m -15.630678,1.1901608 c 0,0 30.635984,0 30.635984,0 0,0 0,28.5471392 0,28.5471392 0,0 -30.635984,0 -30.635984,0 0,0 0,-28.5471392 0,-28.5471392"
           inkscape:connector-curvature="0" />
        <path
           id="path6378"
           style="opacity:1;fill:#ff00ff;fill-opacity:1;stroke:none;stroke-width:0.15487507"
           d="m -15.630679,-18.373195 c 0,0 30.635986,0 30.635986,0 0,0 0,28.547138 0,28.547138 0,0 -30.635986,0 -30.635986,0 0,0 0,-28.547138 0,-28.547138"
           inkscape:connector-curvature="0" />
      </g>
      <text
         xml:space="preserve"
         style="font-style:normal;font-weight:normal;font-size:10.58333302px;line-height:1.25;font-family:sans-serif;letter-spacing:0px;word-spacing:0px;fill:#000000;fill-opacity:1;stroke:none;stroke-width:0.26458332"
         x="-5.789"
         y="262.24606"
         id="text6521"><tspan
           sodipodi:role="line"
           id="tspan6519"
           x="-5.789"
           y="271.90155"
           style="stroke-width:0.26458332" /></text>
    </g>
  </g>
</svg>
